<svg id="b4e7aeb0-6f13-4ae8-a262-91c09b8a050b" data-name="Blue" xmlns="http://www.w3.org/2000/svg" viewBox="0 0 260 260"><path d="M130,61.7h-2.4a68.37,68.37,0,0,0-65.7,70.6A67,67,0,0,0,65,150.6,45.9,45.9,0,0,1,67.3,164a49.55,49.55,0,0,1-2.6,17.5,12.44,12.44,0,0,0-.7,4.1,10.65,10.65,0,0,0,3.2,7.3,10.91,10.91,0,0,0,7.3,3.2,9.61,9.61,0,0,0,3.8-.5,43.68,43.68,0,0,1,16.1-3h1.7a46.34,46.34,0,0,1,12.9,2.2,68.16,68.16,0,0,0,89.19-62.26c0-.11,0-.23,0-.34v-2.3A68.27,68.27,0,0,0,130,61.7Zm-31.2,89c-2.3,0-4.4-.9-5.4-.9-1.4,0-3.1.9-3.1,3.5v7.5a3.8,3.8,0,0,1-3.8,3.8H85a3.8,3.8,0,0,1-3.8-3.8h0V121.2c0-3.1,2.1-4,3.6-4,2.6,0,3.7.7,5.7.7,3.4,0,4.5-1.5,9-1.5,9.9,0,14.9,6.5,15,17.7C114.5,142.3,111,150.7,98.8,150.7Zm30.7-4a3.84,3.84,0,0,1-3.78,3.9H124.4a3.84,3.84,0,0,1-3.9-3.78V109.2a3.91,3.91,0,0,1,3.9-3.9h1.2a3.84,3.84,0,0,1,3.9,3.78V146.7Zm11.6-40.4a4.5,4.5,0,1,1-4.5,4.5,4.49,4.49,0,0,1,4.5-4.5Zm4.6,40.3a4.05,4.05,0,0,1-3.9,4h-1.3a3.91,3.91,0,0,1-3.9-3.9V121.3a3.84,3.84,0,0,1,3.78-3.9h1.42a3.91,3.91,0,0,1,3.9,3.9Zm34.2-14.5v14.6a3.78,3.78,0,0,1-3.7,3.8h-1.4a3.78,3.78,0,0,1-3.7-3.8V127.9c0-4.1-2.2-6.1-5.2-6.1s-5.2,2.3-5.2,6.1v18.8a3.71,3.71,0,0,1-3.62,3.8H155.5a3.78,3.78,0,0,1-3.7-3.8V121.3c0-2.6,2.1-4.1,4.5-4.1,3,0,3.6.6,5.5.6,3.7,0,5-1.5,8.5-1.5,7.3,0,9.4,4.5,9.6,8.6Z"/><path d="M130,10A120,120,0,1,0,250,130,120,120,0,0,0,130,10Zm75.1,122.6a74.89,74.89,0,0,1-75,72.4h-2.6a75.44,75.44,0,0,1-20.1-3.4,40.52,40.52,0,0,0-11.6-2,44.66,44.66,0,0,0-15,2.2,17.48,17.48,0,0,1-22.37-10.52,17.67,17.67,0,0,1-1-5.48,16.33,16.33,0,0,1,.9-6.2,42.41,42.41,0,0,0,.4-26.5A75.06,75.06,0,0,1,127.5,55c.9,0,1.7-.1,2.6-.1a75.1,75.1,0,0,1,75,75Z"/><ellipse cx="97.6" cy="133.6" rx="8" ry="11.7"/></svg>